<?xml version="1.0" encoding="iso-8859-1"?>
<!-- Generator: Adobe Illustrator 13.0.0, SVG Export Plug-In . SVG Version: 6.00 Build 14948)  -->
<!DOCTYPE svg PUBLIC "-//W3C//DTD SVG 1.1//EN" "http://www.w3.org/Graphics/SVG/1.1/DTD/svg11.dtd">
<svg version="1.1" id="Layer_1" xmlns="http://www.w3.org/2000/svg" xmlns:xlink="http://www.w3.org/1999/xlink" x="0px" y="0px"
	 width="300px" height="80px" viewBox="0 0 300 80" style="enable-background:new 0 0 300 80;" xml:space="preserve">
<rect x="281.393" y="5.698" style="fill:#FA000F;" width="14.107" height="70.148"/>
<path style="fill:#FA000F;" d="M30.176,48.119l9.507-26.055l9.695,26.055H30.176 M49.58,11.914l-0.005-0.02
	c-1.483-3.916-5.267-6.704-9.714-6.704c-4.443,0-8.241,2.788-9.709,6.723l-0.01,0.005L5,75.847h15.085l5.784-15.869h28.016
	l6.071,15.869h15.488L49.58,11.914"/>
<path style="fill:#FA000F;" d="M125.209,10.143v7.411h-21.916v58.293H89.184V17.554H67.268v-7.411c0-2.456,1.989-4.444,4.453-4.444
	h49.036C123.22,5.698,125.209,7.687,125.209,10.143"/>
<path style="fill:#FA000F;" d="M249.412,51.001c-0.422-0.542-0.679-1.194-0.679-1.918c0-0.655,0.223-1.247,0.565-1.757
	c0.538-0.635,1.501-0.996,2.142-1.301c7.555-3.443,12.922-10.681,12.922-19.062c0-11.241-9.44-20.451-21.146-21.162
	c-1.458-0.144-4.75-0.129-4.75-0.129H221.95h0.009c-5.728,0-10.388,4.649-10.388,10.378l0.021,0.017v59.75h14.106V20.332h-0.009
	c0-1.74,1.413-3.158,3.151-3.158h9.515c0.864,0,3.448,0.05,3.961,0.122v0.006c4.207,0.345,7.627,3.341,8.618,7.304
	c0.054,0.163,0.092,0.323,0.122,0.487c0,0.016,0,0.031,0,0.036c0.054,0.242,0.081,0.473,0.111,0.709
	c0.051,0.368,0.059,0.743,0.059,1.125c0,3.65-2.011,6.843-4.991,8.499c-0.603,0.358-1.229,0.671-1.888,0.939
	c-0.468,0.212-1.011,0.408-1.578,0.599c-3.807,1.342-5.438,2.136-7.026,3.663c-1.781,1.863-2.908,4.38-2.938,7.163
	c-0.028,2.614,0.882,5.004,2.431,6.854l17.92,21.146h16.78L249.412,51.001"/>
<path style="fill:#FA000F;" d="M147.056,75.598c0,0,5.76-8.034,7.051-28.767c0.741-11.902,0.618-41.578,0.618-41.578h6.427
	c0,0,0.019,29.333,0.841,41.438c1.418,20.822,7.619,28.906,7.619,28.906H147.056"/>
<path style="fill:#FA000F;" d="M140.923,39.772c5.02-10.804,5.096-26.591,5.096-34.519h5.405
	c-0.021,2.244,0.402,24.521-3.099,37.576c-4.115,15.349-15.061,31.149-31.232,32.776l-0.005-17.486
	C121.304,58.078,135.431,51.593,140.923,39.772"/>
<path style="fill:#FA000F;" d="M198.709,58.119l-0.006,17.486c-16.172-1.627-27.116-17.428-31.231-32.776
	c-3.502-13.055-3.081-35.332-3.102-37.576h5.41c0,7.928,0.074,23.715,5.098,34.519C180.366,51.593,194.491,58.078,198.709,58.119"/>
</svg>
